<?xml version="1.0" standalone="no"?>
<!DOCTYPE svg PUBLIC "-//W3C//DTD SVG 20010904//EN"
 "http://www.w3.org/TR/2001/REC-SVG-20010904/DTD/svg10.dtd">
<svg version="1.0" xmlns="http://www.w3.org/2000/svg"
 width="200.000000pt" height="200.000000pt" viewBox="0 0 200.000000 200.000000"
 preserveAspectRatio="xMidYMid meet">
<metadata>
Created by potrace 1.11, written by Peter Selinger 2001-2013
</metadata>
<g transform="translate(0.000000,200.000000) scale(0.100000,-0.100000)"
fill="#000000" stroke="none">
<path d="M830 1936 c-80 -34 -226 -98 -325 -140 -99 -43 -203 -89 -232 -102
-28 -13 -56 -24 -60 -24 -13 0 -73 -60 -74 -74 -1 -6 -2 -274 -3 -594 -1 -448
2 -591 12 -615 26 -67 166 -127 294 -127 97 0 88 -56 88 539 0 345 4 539 11
565 6 21 27 56 47 77 37 40 155 95 635 299 85 36 147 68 147 76 0 8 -11 21
-24 29 -23 16 -33 13 -248 -80 -123 -53 -241 -105 -263 -115 -322 -144 -380
-159 -503 -121 -63 19 -102 41 -73 41 8 0 286 119 606 259 68 30 74 31 121 11
25 -11 47 -20 50 -20 2 0 2 33 1 74 -3 76 -16 106 -46 106 -9 0 -81 -29 -161
-64z"/>
<path d="M1109 1586 c-190 -83 -369 -161 -396 -174 -89 -40 -85 -1 -81 -689
l3 -601 23 -24 c69 -75 263 -118 380 -86 28 8 449 187 617 262 17 8 55 24 85
37 89 37 113 54 120 80 8 35 5 1150 -4 1176 -4 12 -16 25 -26 28 -19 6 -56 -9
-555 -226 -255 -110 -262 -113 -335 -113 -71 0 -190 27 -190 44 0 7 47 29 260
120 80 35 168 73 195 85 28 13 89 39 137 59 l87 36 51 -20 50 -20 0 74 c0 81
-13 107 -53 105 -12 -1 -178 -69 -368 -153z"/>
</g>
</svg>
